<svg xmlns="http://www.w3.org/2000/svg" width="256" height="256" viewBox="0 0 100 100"><rect width="100" height="100" rx="20" fill="#0e1c36"></rect><path d="M29.16 29.24L36.20 36.20L16.44 36.20L16.44 43.08L27.32 43.08L34.28 50.04L34.28 63.80L27.32 70.76L8.52 70.76L8.52 63.80L26.36 63.80L26.36 50.04L15.48 50.04L8.52 43.08L8.52 36.20L15.48 29.24L29.16 29.24ZM91.48 36.20L91.48 70.76L83.56 70.76L83.56 36.20L71.72 36.20L71.72 70.76L63.80 70.76L63.80 36.20L52.04 36.20L52.04 70.76L44.12 70.76L44.12 29.24L52.04 29.24L52.04 35.24L57.88 29.24L65.80 29.24L70.68 34.28L75.64 29.24L84.52 29.24L91.48 36.20Z" fill="#ffede1"></path></svg>