<?xml version="1.0" encoding="utf-8"?>
<svg xmlns="http://www.w3.org/2000/svg" viewBox="855.4928 206.1812 100 100" width="100px" height="100px" xmlns:bx="https://boxy-svg.com"><defs><linearGradient gradientUnits="userSpaceOnUse" bx:pinned="true" id="color-7"><stop style="stop-color: #afd3e2;"/></linearGradient><linearGradient gradientUnits="userSpaceOnUse" bx:pinned="true" id="color-9"><stop style="stop-color: #146c94;"/></linearGradient><linearGradient gradientUnits="userSpaceOnUse" bx:pinned="true" id="color-6"><stop style="stop-color: #f6f1f1;"/></linearGradient></defs><g id="group-1" transform="matrix(0.20000000298023224, 0, 0, 0.20000000298023224, 810.3604125976562, 167.24099731445312)"><rect x="225.662" y="194.701" width="500" height="500" rx="150" ry="150" style="stroke-opacity: 0.77; fill: url(&quot;#color-7&quot;); vector-effect: non-scaling-stroke; stroke-width: 11px; stroke-linecap: round; stroke-linejoin: round;"/><path d="M 538.386 265.785 C 545.706 265.662 552.853 263.931 559.949 262.285 C 572.028 259.494 583.029 258.643 595.449 258.723 C 596.805 258.728 598.161 258.732 599.517 258.736 C 602.807 258.748 606.096 258.764 609.386 258.785 C 604.689 268.788 599.968 278.771 594.95 288.619 C 591.651 294.376 591.651 294.376 590.476 300.707 C 591.837 303.814 593.903 306.357 595.949 309.035 C 609.943 328.042 614.323 347.109 614.904 370.371 C 615.13 377.342 615.934 383.962 617.386 390.785 C 618.107 390.754 618.828 390.723 619.57 390.691 C 631.154 390.27 642.104 393.496 652.386 398.785 C 652.716 399.445 653.046 400.105 653.386 400.785 C 649.354 400.244 645.711 399.27 641.878 397.919 C 633.455 394.976 626.358 394.154 617.386 394.785 C 617.056 395.445 616.726 396.105 616.386 396.785 C 617.624 396.991 618.861 397.198 620.136 397.41 C 629.492 399.506 637.502 404.214 644.386 410.785 C 643.396 411.115 642.406 411.445 641.386 411.785 C 639.144 410.527 639.144 410.527 636.511 408.66 C 629.438 403.951 621.689 400.666 613.386 398.785 C 616.405 401.902 619.527 404.774 622.824 407.598 C 626.844 411.153 630.919 414.947 633.386 419.785 C 633.056 420.775 632.726 421.765 632.386 422.785 C 631.696 422 631.007 421.215 630.296 420.406 C 622.307 410.907 622.307 410.907 612.386 403.785 C 608.913 404.08 606.079 405.244 602.949 406.723 C 593.004 411.401 582.709 412.479 571.949 409.66 C 564.695 407.036 559.844 402.301 554.55 396.869 C 536.469 378.331 514.179 365.263 487.724 364.246 C 466.968 364.053 447.789 370.65 432.386 384.785 C 431.236 385.798 431.236 385.798 430.062 386.832 C 415.08 400.771 405.89 422.076 405.097 442.412 C 404.997 445.911 404.964 449.409 404.949 452.91 C 404.942 453.582 404.936 454.255 404.93 454.948 C 404.768 482.396 414.99 508.403 433.386 528.785 C 434.104 529.633 434.822 530.481 435.562 531.355 C 452.888 551.482 478.41 566.023 504.132 572.232 C 505.801 572.641 507.46 573.091 509.113 573.563 C 518.052 575.943 526.593 576.279 535.778 576.231 C 538.251 576.223 540.722 576.251 543.195 576.283 C 562.138 576.366 583.169 571.727 597.124 558.086 C 601.099 553.351 603.148 547.855 605.119 542.064 C 606.704 537.641 608.331 535.201 612.386 532.785 C 618.398 531.563 624.303 532.367 629.601 535.457 C 635.067 539.524 638.234 543.987 639.386 550.785 C 640.828 563.721 635.247 575.406 627.351 585.348 C 604.534 611.746 566.931 624.628 533.386 629.785 C 532.381 629.956 532.381 629.956 531.355 630.131 C 507.512 634.123 481.073 633.174 457.386 628.785 C 456.46 628.619 455.534 628.452 454.58 628.281 C 434.887 624.652 415.231 618.997 397.386 609.785 C 396.032 609.112 394.678 608.439 393.324 607.765 C 379.378 600.721 367.261 591.92 355.386 581.785 C 354.106 580.708 354.106 580.708 352.8 579.609 C 346.559 574.204 341.446 568.291 336.386 561.785 C 335.571 560.786 334.757 559.787 333.917 558.758 C 323.62 546.011 316.63 531.857 310.386 516.785 C 309.802 515.466 309.802 515.466 309.206 514.121 C 303.31 500.455 301.216 485.448 299.386 470.785 C 299.289 470.008 299.192 469.231 299.092 468.43 C 297 449.888 297.748 431.06 301.386 412.785 C 301.595 411.662 301.595 411.662 301.808 410.516 C 307.401 380.623 320.259 351.47 339.386 327.785 C 339.794 327.275 340.202 326.766 340.622 326.241 C 370.029 289.718 412.741 263.969 459.757 258.25 C 483.254 255.978 516.449 254.816 538.386 265.785 Z" style="stroke-width: 1; fill: url(&quot;#color-9&quot;);"/><path d="M 562.386 331.785 C 566.611 332.207 569.276 333.784 572.699 336.223 C 573.582 336.84 574.465 337.457 575.374 338.094 C 576.038 338.652 576.702 339.21 577.386 339.785 C 577.386 340.445 577.386 341.105 577.386 341.785 C 575.994 342.373 575.994 342.373 574.574 342.973 C 570.957 345.029 569.865 345.924 568.386 349.785 C 567.84 354.392 567.988 358.46 569.324 362.91 C 571.713 365.083 572.552 365.173 575.699 365.348 C 580.228 365.12 582.749 363.491 586.386 360.785 C 587.706 360.785 589.026 360.785 590.386 360.785 C 593.437 366.155 593.437 366.155 593.199 369.098 C 592.386 370.785 592.386 370.785 590.386 371.785 C 581.957 372.719 575.371 371.716 568.386 366.785 C 562.171 361.371 558.956 353.812 558.183 345.637 C 558.076 340.557 558.616 337.216 561.386 332.785 C 561.716 332.455 562.046 332.125 562.386 331.785 Z" style="stroke-width: 1; fill: url(&quot;#color-6&quot;);"/></g></svg>